<?xml version="1.0" encoding="UTF-8"?>
<svg width="69px" height="96px" viewBox="0 0 69 96" version="1.1" xmlns="http://www.w3.org/2000/svg" xmlns:xlink="http://www.w3.org/1999/xlink">
    <!-- Generator: Sketch 48.2 (47327) - http://www.bohemiancoding.com/sketch -->
    <title>dooringX图标@1x</title>
    <desc>Created with Sketch.</desc>
    <defs></defs>
    <g id="Page-1" stroke="none" stroke-width="1" fill="none" fill-rule="evenodd">
        <g id="dooringX图标" transform="translate(34.500000, 48.000000) scale(1, -1) translate(-34.500000, -48.000000) ">
            <polygon id="Rectangle-42-Copy-16" fill="#5271ED" points="-9.09494702e-13 17.5 27 0 27 16 13 24.5 13.5 72 -9.09494702e-13 80"></polygon>
            <polygon id="Rectangle-42-Copy-17" fill="#5271ED" points="41 40.5 55 32 55 64 27 80 27 64 41 56"></polygon>
            <polygon id="Rectangle-42-Copy-18" fill="#E6EBFF" points="0 80.0502832 13.4014599 72.0251416 26.8029197 80.0502832 54.5985401 64 68 72.0251416 26.3065693 96"></polygon>
            <polygon id="Rectangle-42-Copy-19" fill="#9CB0FF" points="27 0 69 24.4491525 69 72 55.2830686 64.0150631 55.2830686 32 27 16"></polygon>
            <polygon id="Rectangle-42-Copy-20" fill="#9CB0FF" points="13 24.9279279 27 33 27 80 13.5 71.9279279"></polygon>
            <polygon id="Rectangle-42-Copy-21" fill="#E6EBFF" points="13 24.6734694 27 16 55 32.3265306 41 41"></polygon>
        </g>
    </g>
</svg>